<?xml version="1.0" encoding="UTF-8"?>
<svg id="Calque_2" data-name="Calque 2" xmlns="http://www.w3.org/2000/svg" viewBox="0 0 2014.9999 2015.3399">
  <defs>
    <style>
      .cls-1 {
        fill: #f0f0f0;
        stroke-width: 0px;
      }
    </style>
  </defs>
  <g id="Calque_1-2" data-name="Calque 1">
    <g>
      <path class="cls-1" d="M2014.9974,1460.6058c-.1022-185.9695-.2733-371.939-.4707-557.9085-.1011-136.6993-.1948-273.3987-.2493-410.0981-.0149-37.6486-1.2531-75.1087-6.9884-112.4254-7.228-47.0285-20.4127-92.0706-41.2921-134.8699-44.9872-92.2167-114.9172-158.7159-207.9722-201.0266-61.9753-28.1792-127.9081-39.0942-195.3654-42.016-30.2872-1.3118-60.6251-1.6849-90.9448-1.9567-40.8303-.366-81.6652-.3135-122.4979-.2834-206.6698.1521-413.3397.2725-620.0093.5122-.9314-.3889-2.0993-.5591-3.5904-.5303-19.3206.3728-38.6476.4697-57.9727.5442-13.7668.053-27.5337.0903-41.3006.126-30.8673.0424-61.7347.0764-92.602.1259-40.9385.0656-82.0229-1.4503-122.723,4.474-26.7872,3.8992-53.7958,7.3972-80.0128,13.877-43.8027,10.8264-84.646,27.5862-122.1884,50.6224-41.682,25.1552-78.0797,57.3093-109.1273,96.5083-13.0219,16.2229-24.7883,33.3547-35.2734,51.4142-1.5657,2.6379-3.1181,5.2932-4.6467,7.9798-24.9855,43.9132-41.3339,91.141-49.5516,140.9397-4.1333,25.0471-7.5659,50.36-8.9055,75.6803C-.3321,473.3871.0167,504.5988.0604,535.7654c-.0378,6.3235-.0613,12.6467-.0579,18.9688.1022,185.9695.2733,371.939.4707,557.9085.101,136.6993.1948,273.3987.2493,410.0981.0149,37.6485,1.2531,75.1086,6.9884,112.4253,7.228,47.0286,20.4127,92.0706,41.2921,134.8699,44.9872,92.2167,114.9172,158.7159,207.9722,201.0265,61.9753,28.1792,127.9081,39.0944,195.3654,42.0161,30.2872,1.3118,60.6251,1.6849,90.9448,1.9567,40.8303.366,81.6652.3135,122.4979.2834,206.6698-.1522,413.3397-.2725,620.0093-.5121.9314.3889,2.0993.559,3.5904.5303,19.3206-.3729,38.6476-.4698,57.9727-.5442,13.7668-.053,27.5337-.0904,41.3006-.126,30.8673-.0424,61.7347-.0764,92.602-.1259,40.9385-.0656,82.0229,1.4504,122.723-4.474,26.7872-3.8992,53.7958-7.3972,80.0128-13.877,43.802-10.8262,84.6447-27.5855,122.1866-50.6213,41.6828-25.1554,78.0809-57.3099,109.1292-96.5094,13.0216-16.2225,24.7876-33.3537,35.2726-51.4127,1.5659-2.6384,3.1187-5.2942,4.6476-7.9813,24.9855-43.9132,41.3339-91.141,49.5516-140.9397,4.1333-25.0471,7.5659-50.36,8.9055-75.6803,1.6449-31.0922,1.2961-62.3039,1.2524-93.4705.0378-6.3235.0613-12.6467.0579-18.9688ZM824.7112,1751.9306c-35.7943-.1671-71.6029-1.4333-107.3649-3.0705-26.554-1.2156-53.092-3.3487-79.5485-5.9698-31.6594-3.1365-62.5175-10.4401-92.8639-19.9822-70.416-22.1416-129.6615-61.1483-177.9722-116.9722-37.8604-43.7485-62.8142-94.1942-78.8322-149.4294-7.0903-24.4495-11.9933-49.2178-15.4106-74.2018-1.0966-9.2026-2.2057-18.4058-3.1994-27.6179-1.5101-15.6946-2.5408-31.4586-3.2596-47.2673-1.1116-24.4443-2.0504-48.9001-2.7128-73.3603-.6134-22.651-1.0712-45.315-1.0492-67.9728.1086-111.4924.1711-222.9859.7545-334.4764.1959-37.4604,1.5159-74.9277,3.0167-112.3641.9652-24.0778,2.7758-48.1432,4.9642-72.1451,2.9641-32.5092,9.3816-64.4392,19.1775-95.5779,15.4635-49.1547,37.3051-92.1957,65.5847-129.041,4.9651-6.2994,10.1705-12.4786,15.6495-18.521,16.8206-18.5503,34.8646-35.5422,54.4318-50.6053,32.3223-24.1446,69.4655-43.6366,111.4882-58.4038,5.7059-2.0051,11.4381-3.8805,17.1948-5.6338,29.6186-8.8012,60.0205-14.6534,91.0074-18.2493,11.0776-1.2263,22.2079-2.1603,33.3854-2.816,28.9026-1.6958,57.8354-2.9366,86.7676-4.0452,18.1372-.6949,36.2985-.7599,54.4484-1.131.6063-.0124,1.2086-.1182,1.7925-.2253,5.0519-.0477,10.1038-.0816,15.1553-.0822,117.6575-.0143,235.316.0911,352.972.6402,35.7943.1671,71.6029,1.4333,107.3649,3.0706,26.554,1.2156,53.092,3.3486,79.5485,5.9697,31.6594,3.1365,62.5175,10.4401,92.8639,19.9822,70.416,22.1416,129.6615,61.1484,177.9722,116.9722,37.8604,43.7485,62.8142,94.1943,78.8322,149.4294,7.0902,24.4493,11.9933,49.2173,15.4105,74.2011,1.0966,9.2028,2.2057,18.4062,3.1995,27.6186,1.5101,15.6946,2.5408,31.4586,3.2596,47.2673,1.1116,24.4443,2.0504,48.9001,2.7128,73.3603.6134,22.651,1.0712,45.315,1.0492,67.9728-.1086,111.4924-.1711,222.9859-.7545,334.4764-.1959,37.4604-1.5159,74.9277-3.0167,112.3641-.9652,24.0778-2.7758,48.1432-4.9642,72.1451-2.9641,32.5092-9.3816,64.4392-19.1775,95.5779-15.4635,49.1547-37.3051,92.1957-65.5847,129.041-4.9651,6.2994-10.1705,12.4786-15.6495,18.521-16.8206,18.5503-34.8646,35.5422-54.4318,50.6053-32.3223,24.1446-69.4655,43.6366-111.4882,58.4038-5.7052,2.0048-11.4366,3.88-17.1926,5.6331-29.6208,8.8021-60.0252,14.6547-91.0146,18.2505-11.0759,1.226-22.2045,2.1598-33.3804,2.8155-28.9026,1.6958-57.8354,2.9366-86.7676,4.0452-18.1372.6949-36.2985.7599-54.4484,1.131-.6063.0124-1.2086.1182-1.7925.2253-5.0519.0477-10.1038.0816-15.1553.0822-117.6575.0142-235.316-.0911-352.972-.6403Z"/>
      <path class="cls-1" d="M1614.4184,749.8828c-.0078-.278-.0126-.5562-.0206-.8342-.3504-12.3065-.9286-24.6119-1.6627-36.9113-.9684-16.9139-2.2112-33.8157-3.6942-50.6851-.2456-2.7941-.5385-5.5786-.8531-8.3583-2.665-27.2249-9.408-53.6754-18.8141-79.4374-21.2344-58.1571-59.0824-102.3728-113.0388-132.2064-41.623-23.0143-87.2365-32.8217-134.111-36.9625-5.3486-.4995-10.7116-.9319-16.0872-1.3013-11.1729-.7679-22.3579-1.4036-33.5476-1.9356-9.0318-.4389-18.0666-.8113-27.1-1.1381-29.1305-1.0541-58.2882-2.1029-87.4293-1.9836-6.2542.0256-12.5084.0349-18.7626.0469-25.223-.0855-50.4465-.1078-75.67-.0895-69.7629-.2473-139.5278-.7571-209.284-.1273-48.1189.0308-96.2314.595-144.3194,3.1257-24.0698,1.2667-48.1464,2.7819-72.1392,5.0406-28.5548,2.688-56.3127,9.3113-83.3292,19.0623-58.5703,21.1395-103.1775,58.976-133.1992,113.2903-23.823,43.0998-33.5804,90.436-37.4652,139.0625-1.8813,23.5493-3.1138,47.1682-3.932,70.7802-1.0731,30.9647-1.9617,61.9526-2.0287,92.9325-.2393,110.6522-.1528,221.3052-.0516,331.9579.0192,20.9913.3619,41.9932,1.101,62.9708,1.043,29.6024,2.4444,59.1948,4.0063,88.7749.5778,10.9408,1.9844,21.8409,3.144,32.7457.0809.7612.1968,1.4781.3923,2.1133,2.8413,27.6159,9.341,54.4877,18.7877,80.6613,21.1395,58.5703,58.976,103.1775,113.2903,133.1992,43.0998,23.823,90.436,33.5804,139.0625,37.4652,23.5493,1.8813,47.1682,3.1138,70.7802,3.932,30.9647,1.0731,61.9526,1.9617,92.9325,2.0287,110.6522.2393,221.3052.1528,331.9579.0516,20.9913-.0192,41.9932-.3619,62.9708-1.101,29.6024-1.043,59.1948-2.4444,88.7749-4.0063,10.9408-.5778,21.8409-1.9844,32.7457-3.144,1.1146-.1185,2.1357-.3103,2.9409-.721,27.6386-2.5839,54.4782-9.3887,80.6102-18.93,58.1571-21.2344,102.3728-59.0824,132.2064-113.0388,23.826-43.0912,33.4988-90.4587,37.3813-139.0752,1.9069-23.8779,3.0901-47.8292,3.9562-71.7706,1.0541-29.1305,2.1029-58.2882,1.9836-87.4293-.5844-142.687,2.6173-285.4023-2.4851-428.0546ZM1144.8965,1365.5126c-.3373.1284-.673.26-1.0107.3875-.5916.224-1.1866.4414-1.7797.6625-41.8892,15.578-87.222,24.066-134.5001,24.049-212.1321-.0767-382.0973-171.046-383.0134-382.8785.3977-124.2876,58.9296-234.3721,149.9621-304.2907,57.538-43.9911,127.9952-72.0718,204.8145-77.8572,9.3698-.681,18.8346-1.0331,28.3857-1.0335,6.4901-.0002,12.9417.1614,19.3522.4771,203.0262,10.8221,363.3654,177.0671,363.3736,382.6038.0065,163.4293-101.3162,302.7853-245.5842,357.88ZM1494.8598,610.2852c-.0155,49.9871-40.0601,89.8756-90.2064,89.8548-49.7517-.0206-89.6365-40.3519-89.618-90.5256.0183-49.834,41.7501-89.7546,90.8014-89.425,48.4452.3256,89.8162,40.9741,89.0231,90.0959Z"/>
      <path class="cls-1" d="M1007.7752,760.1188c136.3972.0021,247.3403,111.1748,247.2944,247.8065-.0459,136.7072-111.2096,247.7139-248.1893,247.4077-136.6393-.3054-248.2564-111.4609-247.0036-250.04,1.224-135.3942,111.3425-245.1302,247.8985-245.1742Z"/>
    </g>
  </g>
</svg>